<svg id="Layer_1" data-name="Layer 1" xmlns="http://www.w3.org/2000/svg" viewBox="0 0 498.75 498.75"><defs><style>.cls-1{fill:#1d1d1b;stroke:#ffdf63;stroke-width:6px;}.cls-1,.cls-2{stroke-miterlimit:10;}.cls-2{fill:none;stroke:#1d1d1b;}.cls-3{fill:#4c4c48;}.cls-4{fill:#ffdf63;}</style></defs><title>aparat-seeklogo b</title><circle class="cls-1" cx="249.37" cy="249.37" r="246.37"/><path class="cls-2" d="M642.74,131" transform="translate(-380.68 -20.24)"/><path class="cls-3" d="M642.74,131c-65-15.62-131,24.79-146.59,89.8l13.25-55.15a65,65,0,0,1,78.19-47.9L642.74,131" transform="translate(-380.68 -20.24)"/><path class="cls-3" d="M683.41,140.78c65,15.62,105.42,81.59,89.8,146.6l13.25-55.15A65,65,0,0,0,738.57,154l-55.16-13.25" transform="translate(-380.68 -20.24)"/><path class="cls-3" d="M617.76,414.05c65,15.62,131-24.79,146.59-89.8L751.1,379.4a65,65,0,0,1-78.19,47.9l-55.16-13.25" transform="translate(-380.68 -20.24)"/><path class="cls-3" d="M577.09,404.28c-65-15.62-105.42-81.59-89.8-146.6L474,312.83A65,65,0,0,0,521.93,391l55.15,13.25" transform="translate(-380.68 -20.24)"/><path class="cls-4" d="M630.25,133.57a139,139,0,1,0,139,139A139,139,0,0,0,630.25,133.57Zm-39.31,37.91a39.32,39.32,0,1,1-39.31,39.32A39.31,39.31,0,0,1,590.94,171.48ZM570,354.71a39.31,39.31,0,1,1,39.31-39.31A39.31,39.31,0,0,1,570,354.71Zm42-80.78a17.27,17.27,0,1,1,17.27,17.27A17.27,17.27,0,0,1,612,273.93Zm57.38,100.29a39.31,39.31,0,1,1,39.32-39.31A39.31,39.31,0,0,1,669.36,374.22Zm21-104.61a39.31,39.31,0,1,1,39.31-39.31A39.31,39.31,0,0,1,690.34,269.61Z" transform="translate(-380.68 -20.24)"/></svg>