<svg xmlns="http://www.w3.org/2000/svg" xmlns:xlink="http://www.w3.org/1999/xlink" viewBox="0 0 466.68 466.68"><defs><style>.cls-1{stroke-miterlimit:10;stroke-width:5px;stroke:url(#linear-gradient);}.cls-2{fill:url(#linear-gradient-2);}.cls-3{fill:url(#linear-gradient-3);}.cls-4{fill:url(#linear-gradient-4);}.cls-5{fill:url(#linear-gradient-5);}</style><linearGradient id="linear-gradient" y1="233.34" x2="466.68" y2="233.34" gradientUnits="userSpaceOnUse"><stop offset="0" stop-color="#c8992e"/><stop offset="0.15" stop-color="#b57e10"/><stop offset="0.43" stop-color="#f9df7b"/><stop offset="0.59" stop-color="#fff3a6"/><stop offset="0.73" stop-color="#f9df7b"/><stop offset="0.93" stop-color="#b57e10"/><stop offset="0.94" stop-color="#b98416"/><stop offset="1" stop-color="#cda035"/></linearGradient><linearGradient id="linear-gradient-2" x1="169.82" y1="250" x2="330.18" y2="250" xlink:href="#linear-gradient"/><linearGradient id="linear-gradient-3" x1="209.44" y1="250" x2="290.56" y2="250" xlink:href="#linear-gradient"/><linearGradient id="linear-gradient-4" x1="284.41" y1="204.95" x2="305.54" y2="204.95" xlink:href="#linear-gradient"/><linearGradient id="linear-gradient-5" x1="101.69" y1="250" x2="398.31" y2="250" xlink:href="#linear-gradient"/></defs><title>insta b</title><g id="Background"><circle class="cls-1" cx="233.34" cy="233.34" r="230.84"/></g><g id="Elements"><path class="cls-2" d="M281.08,330.32H218.92a49.2,49.2,0,0,1-49.1-49.18V218.86a49.2,49.2,0,0,1,49.1-49.18h62.16a49.2,49.2,0,0,1,49.1,49.18v62.28A49.2,49.2,0,0,1,281.08,330.32ZM218.92,181.71a37.17,37.17,0,0,0-37.09,37.15v62.28a37.17,37.17,0,0,0,37.09,37.15h62.16a37.17,37.17,0,0,0,37.09-37.15V218.86a37.17,37.17,0,0,0-37.09-37.15Z" transform="translate(-16.66 -16.66)"/><path class="cls-3" d="M250,290.63A40.63,40.63,0,1,1,290.56,250,40.63,40.63,0,0,1,250,290.63Zm0-68.95A28.32,28.32,0,1,0,278.27,250,28.33,28.33,0,0,0,250,221.68Z" transform="translate(-16.66 -16.66)"/><path class="cls-4" d="M305.54,205A10.57,10.57,0,1,1,295,194.37,10.57,10.57,0,0,1,305.54,205Z" transform="translate(-16.66 -16.66)"/><path class="cls-5" d="M309.57,398.57H190.43a88.92,88.92,0,0,1-88.74-88.89V190.33a88.92,88.92,0,0,1,88.74-88.9H309.57a88.92,88.92,0,0,1,88.74,88.9V309.68A88.92,88.92,0,0,1,309.57,398.57ZM190.43,113.77A76.57,76.57,0,0,0,114,190.33V309.68a76.57,76.57,0,0,0,76.42,76.55H309.57A76.57,76.57,0,0,0,386,309.68V190.33a76.57,76.57,0,0,0-76.42-76.56Z" transform="translate(-16.66 -16.66)"/></g></svg>