<svg xmlns="http://www.w3.org/2000/svg" xmlns:xlink="http://www.w3.org/1999/xlink" viewBox="0 0 273.01 273.01"><defs><style>.cls-1{fill:#efc14b;stroke:#000;}.cls-1,.cls-3,.cls-4{stroke-miterlimit:10;}.cls-2{fill:#fcd660;}.cls-3,.cls-4{stroke:#4c4c48;stroke-width:2px;}.cls-3{fill:url(#linear-gradient);}.cls-4{fill:url(#linear-gradient-2);}</style><linearGradient id="linear-gradient" x1="89.12" y1="144.93" x2="174.53" y2="144.93" gradientUnits="userSpaceOnUse"><stop offset="0" stop-color="#fbf2a8"/><stop offset="0.08" stop-color="#f1dd80"/><stop offset="0.14" stop-color="#dbc166"/><stop offset="0.23" stop-color="#c4a449"/><stop offset="0.32" stop-color="#b38e35"/><stop offset="0.41" stop-color="#a88128"/><stop offset="0.49" stop-color="#a57d24"/><stop offset="0.56" stop-color="#a88128"/><stop offset="0.64" stop-color="#b28e34"/><stop offset="0.72" stop-color="#c3a348"/><stop offset="0.8" stop-color="#dac064"/><stop offset="0.86" stop-color="#f1dd80"/><stop offset="1" stop-color="#fbf2a8"/></linearGradient><linearGradient id="linear-gradient-2" x1="126.9" y1="231.32" x2="292.83" y2="231.32" gradientUnits="userSpaceOnUse"><stop offset="0.08" stop-color="#f1dd80"/><stop offset="0.14" stop-color="#dbc166"/><stop offset="0.23" stop-color="#c4a449"/><stop offset="0.32" stop-color="#b38e35"/><stop offset="0.41" stop-color="#a88128"/><stop offset="0.49" stop-color="#a57d24"/><stop offset="0.58" stop-color="#a88128"/><stop offset="0.68" stop-color="#b28e34"/><stop offset="0.77" stop-color="#c3a348"/><stop offset="0.87" stop-color="#dac064"/><stop offset="0.95" stop-color="#f1dd80"/><stop offset="1" stop-color="#fbf2a8"/></linearGradient></defs><title>tel logo b</title><g id="OBJECTS"><polygon class="cls-1" points="121.1 147.83 120.26 166.45 140.68 149.14 121.1 147.83"/><circle cx="219.72" cy="231.28" r="135" transform="translate(-182.4 128.33) rotate(-45)"/><path class="cls-2" d="M219.72,97.78a133.5,133.5,0,1,1-94.4,39.1,132.61,132.61,0,0,1,94.4-39.1m0-3a136.5,136.5,0,1,0,136.5,136.5,136.5,136.5,0,0,0-136.5-136.5Z" transform="translate(-83.22 -94.78)"/><polygon class="cls-3" points="89.12 150.74 104.83 193.34 174.53 96.53 89.12 150.74"/><path class="cls-4" d="M286,163.62,130.14,222.85a5,5,0,0,0,.18,9.45l40.19,13.58,91.54-59.07-72.5,67.62L246,297.26a10.27,10.27,0,0,0,16.17-5.69l30.51-122A5,5,0,0,0,286,163.62Z" transform="translate(-83.22 -94.78)"/></g></svg>