<svg id="Layer_1" data-name="Layer 1" xmlns="http://www.w3.org/2000/svg" viewBox="0 0 499.75 499.75"><defs><style>.cls-1,.cls-2{fill:none;stroke-miterlimit:10;}.cls-1{stroke:#1d1d1b;}.cls-2{stroke:#ffdf63;stroke-width:7px;}.cls-3{fill:#4c4c48;}.cls-4{fill:#ffdf63;}</style></defs><title>aparat-seeklogo</title><path class="cls-1" d="M642.74,131" transform="translate(-344.72 -50.09)"/><circle class="cls-2" cx="249.87" cy="249.87" r="246.37"/><path class="cls-3" d="M607.29,161.36c-65-15.62-131,24.79-146.6,89.8L473.94,196a65,65,0,0,1,78.2-47.9l55.15,13.25" transform="translate(-344.72 -50.09)"/><path class="cls-3" d="M648,171.13c65,15.62,105.42,81.59,89.8,146.6L751,262.58a65,65,0,0,0-47.9-78.2L648,171.13" transform="translate(-344.72 -50.09)"/><path class="cls-3" d="M582.3,444.41c65,15.62,131-24.79,146.6-89.8l-13.25,55.15a65,65,0,0,1-78.2,47.9L582.3,444.41" transform="translate(-344.72 -50.09)"/><path class="cls-3" d="M541.63,434.63c-65-15.62-105.42-81.58-89.8-146.59l-13.25,55.15a65,65,0,0,0,47.9,78.19l55.14,13.25" transform="translate(-344.72 -50.09)"/><path class="cls-4" d="M594.79,163.92a139,139,0,1,0,139,139A139,139,0,0,0,594.79,163.92Zm-39.31,37.92a39.31,39.31,0,1,1-39.31,39.31A39.31,39.31,0,0,1,555.48,201.84Zm-21,183.23a39.32,39.32,0,1,1,39.31-39.31A39.31,39.31,0,0,1,534.51,385.07Zm42-80.79a17.27,17.27,0,1,1,17.26,17.27A17.26,17.26,0,0,1,576.53,304.28Zm57.38,100.29a39.31,39.31,0,1,1,39.31-39.31A39.31,39.31,0,0,1,633.91,404.57Zm21-104.6a39.32,39.32,0,1,1,39.31-39.32A39.31,39.31,0,0,1,654.88,300Z" transform="translate(-344.72 -50.09)"/></svg>